<svg width="48" height="48" viewBox="0 0 48 48" fill="none" xmlns="http://www.w3.org/2000/svg">
<rect width="48" height="48" fill="#323238"/>
<path d="M33.3333 13.5H14.6667C14.3572 13.5 14.0605 13.6229 13.8417 13.8417C13.6229 14.0605 13.5 14.3572 13.5 14.6667V33.3333C13.5 33.6428 13.6229 33.9395 13.8417 34.1583C14.0605 34.3771 14.3572 34.5 14.6667 34.5H33.3333C33.6428 34.5 33.9395 34.3771 34.1583 34.1583C34.3771 33.9395 34.5 33.6428 34.5 33.3333V14.6667C34.5 14.3572 34.3771 14.0605 34.1583 13.8417C33.9395 13.6229 33.6428 13.5 33.3333 13.5V13.5ZM19.7288 31.3932H16.6115V21.3715H19.7288V31.3932ZM18.1702 20.003C17.6912 20.003 17.2318 19.8127 16.8931 19.474C16.5544 19.1353 16.3642 18.676 16.3642 18.197C16.3642 17.718 16.5544 17.2587 16.8931 16.92C17.2318 16.5813 17.6912 16.391 18.1702 16.391C18.6491 16.391 19.1085 16.5813 19.4472 16.92C19.7859 17.2587 19.9762 17.718 19.9762 18.197C19.9762 18.676 19.7859 19.1353 19.4472 19.474C19.1085 19.8127 18.6491 20.003 18.1702 20.003V20.003ZM31.3943 31.3932H28.2805V26.52C28.2805 25.358 28.2595 23.8635 26.6612 23.8635C25.0395 23.8635 24.7933 25.1305 24.7933 26.4383V31.3943H21.6818V21.3727H24.6685V22.7423H24.7117C25.1258 21.9548 26.1432 21.1242 27.6563 21.1242C30.811 21.1242 31.3932 23.1985 31.3932 25.8982V31.3932H31.3943Z" fill="white"/>
</svg>
